<svg width="48" height="48" viewBox="0 0 48 48" fill="none" xmlns="http://www.w3.org/2000/svg">
<g clip-path="url(#clip0)">
<path d="M13 38H9C8.448 38 8 37.552 8 37C8 36.448 8.448 36 9 36H13C13.552 36 14 36.448 14 37C14 37.552 13.552 38 13 38Z" fill="#282828"/>
<path d="M45.5 38H43C42.448 38 42 37.552 42 37C42 36.448 42.448 36 43 36H44.67L46.018 28.816C46 25.14 42.86 22 39 22H32.434L29.252 36H35C35.552 36 36 36.448 36 37C36 37.552 35.552 38 35 38H28C27.696 38 27.408 37.862 27.218 37.624C27.028 37.388 26.956 37.076 27.024 36.78L30.66 20.78C30.764 20.322 31.168 20 31.636 20H39C43.962 20 48 24.038 48 29L46.482 37.184C46.394 37.658 45.982 38 45.5 38Z" fill="#282828"/>
<path d="M39 42C36.244 42 34 39.758 34 37C34 34.242 36.244 32 39 32C41.756 32 44 34.242 44 37C44 39.758 41.756 42 39 42ZM39 34C37.346 34 36 35.346 36 37C36 38.654 37.346 40 39 40C40.654 40 42 38.654 42 37C42 35.346 40.654 34 39 34Z" fill="#282828"/>
<path d="M17 42C14.244 42 12 39.758 12 37C12 34.242 14.244 32 17 32C19.756 32 22 34.242 22 37C22 39.758 19.756 42 17 42ZM17 34C15.346 34 14 35.346 14 37C14 38.654 15.346 40 17 40C18.654 40 20 38.654 20 37C20 35.346 18.654 34 17 34Z" fill="#282828"/>
<path d="M13 20H5C4.448 20 4 19.552 4 19C4 18.448 4.448 18 5 18H13C13.552 18 14 18.448 14 19C14 19.552 13.552 20 13 20Z" fill="#282828"/>
<path d="M13 26H3C2.448 26 2 25.552 2 25C2 24.448 2.448 24 3 24H13C13.552 24 14 24.448 14 25C14 25.552 13.552 26 13 26Z" fill="#282828"/>
<path d="M13 32H1C0.448 32 0 31.552 0 31C0 30.448 0.448 30 1 30H13C13.552 30 14 30.448 14 31C14 31.552 13.552 32 13 32Z" fill="#282828"/>
<path d="M28 38H21C20.448 38 20 37.552 20 37C20 36.448 20.448 36 21 36H27.202L31.746 16H9C8.448 16 8 15.552 8 15C8 14.448 8.448 14 9 14H33C33.304 14 33.592 14.138 33.782 14.376C33.972 14.612 34.044 14.924 33.976 15.22L28.976 37.22C28.872 37.678 28.466 38 28 38Z" fill="#282828"/>
</g>
<defs>
<clipPath id="clip0">
<rect width="48" height="48" fill="white"/>
</clipPath>
</defs>
</svg>
