<svg width="44" height="44" viewBox="0 0 44 44" fill="none" xmlns="http://www.w3.org/2000/svg">
<g clip-path="url(#clip0)">
<path d="M26.9767 17.9124L20.3656 24.1567L17.1928 20.8925C16.8411 20.5304 16.2619 20.5222 15.9002 20.8739C15.538 21.226 15.5298 21.8048 15.8815 22.167L19.6869 26.0733C20.0404 26.429 20.6117 26.4412 20.9799 26.1006L28.2514 19.242C28.428 19.0755 28.5312 18.8455 28.538 18.603C28.5448 18.3605 28.4549 18.1252 28.288 17.949C27.9341 17.5811 27.3506 17.565 26.9767 17.9124Z" fill="#282828"/>
<path d="M22.071 8.30273C14.5154 8.30273 8.37183 14.4463 8.37183 22.0019C8.37183 29.5578 14.5154 35.7014 22.071 35.7014C29.6269 35.7014 35.7705 29.5578 35.7705 22.0019C35.7705 14.4463 29.6269 8.30273 22.071 8.30273ZM22.071 33.8675C15.5241 33.8675 10.2057 28.5398 10.2057 22.0019C10.2057 15.4639 15.5241 10.1366 22.071 10.1366C28.6243 10.1366 33.9366 15.4489 33.9366 22.0019C33.9366 28.5549 28.6243 33.8675 22.071 33.8675Z" fill="#282828"/>
<path d="M40.9237 16.9591L41.2264 11.5215C41.2475 11.1565 41.0491 10.8137 40.722 10.6504L35.8805 8.20216L33.4323 3.36058C33.2657 3.03642 32.9251 2.83906 32.5612 2.85626L27.1142 3.14997L22.5753 0.151244C22.2694 -0.0504145 21.8729 -0.0504145 21.5667 0.151244L17.0278 3.14997L11.5905 2.8473C11.2252 2.82581 10.8827 3.02424 10.7194 3.35163L8.27086 8.19321L3.42963 10.6414C3.10511 10.8076 2.90811 11.1482 2.9253 11.5125L3.22761 16.9501L0.229247 21.489C0.0275884 21.7949 0.0275884 22.1914 0.229247 22.4977L3.21866 27.0456L2.91599 32.4832C2.89486 32.8481 3.09293 33.1909 3.42032 33.3543L8.2619 35.8025L10.7101 40.644C10.8763 40.9686 11.2169 41.1656 11.5812 41.1484L17.0188 40.8457L21.5577 43.8441C21.8618 44.0522 22.2623 44.0522 22.5664 43.8441L27.1053 40.8457L32.5429 41.1484C32.9079 41.1695 33.2503 40.9711 33.414 40.644L35.8622 35.8025L40.7038 33.3543C41.0279 33.1877 41.2253 32.8474 41.2081 32.4832L40.9054 27.0456L43.9038 22.5066C44.1055 22.2007 44.1055 21.8039 43.9038 21.498L40.9237 16.9591ZM39.218 26.2937C39.1063 26.4578 39.0543 26.6551 39.0715 26.8532L39.3556 31.9971L34.7801 34.3078C34.6057 34.3951 34.4642 34.537 34.3768 34.7114L32.0658 39.2869L26.9219 39.0028C26.7249 38.9957 26.5304 39.0465 26.3624 39.1493L22.071 41.9829L17.7799 39.1493C17.6309 39.0487 17.4554 38.9942 17.2756 38.9935H17.2298L12.0855 39.2779L9.77487 34.7021C9.68748 34.5277 9.54599 34.3862 9.3712 34.2988L4.78643 31.9971L5.07083 26.8532C5.078 26.6562 5.02678 26.4617 4.92398 26.2937L2.09073 22.0023L4.92398 17.7109C5.03609 17.5472 5.08803 17.3495 5.07083 17.1518L4.78643 12.0075L9.36225 9.69687C9.53668 9.60947 9.67816 9.46799 9.76556 9.29355L12.0762 4.71774L17.2205 5.00214C17.4171 5.00895 17.6116 4.95808 17.7799 4.85529L22.071 2.02204L26.3624 4.85529C26.5265 4.9674 26.7242 5.01933 26.9219 5.00214L32.0658 4.71774L34.3768 9.29355C34.4642 9.46799 34.6057 9.60947 34.7801 9.69687L39.3556 12.0075L39.0715 17.1518C39.0644 17.3484 39.1156 17.5429 39.218 17.7109L42.0516 22.0023L39.218 26.2937Z" fill="#282828"/>
</g>
<defs>
<clipPath id="clip0">
<rect width="44" height="44" fill="white"/>
</clipPath>
</defs>
</svg>
