<svg width="143" height="62" viewBox="0 0 143 62" fill="none" xmlns="http://www.w3.org/2000/svg">
<path d="M12.4656 0.611098C12.4656 0.970568 12.6439 3.09144 12.8578 5.3561C13.25 9.70569 12.7509 33.8261 12.1091 42.2377C11.61 48.2409 10.7543 52.7702 10.0056 53.1656C9.68476 53.3453 8.65084 53.597 7.65258 53.7048C4.69343 54.1002 2.23342 54.963 1.09255 55.9335C-0.725724 57.4433 -0.226591 59.2766 2.23342 60.4269C4.05169 61.2537 5.65605 61.2896 7.40301 60.5707C9.18563 59.7799 10.0769 58.8812 11.0396 56.7963C11.7169 55.3584 12.0735 54.963 12.9648 54.7832C13.5709 54.6754 19.1326 54.6394 25.3005 54.7113L36.531 54.8192L38.4919 55.7538C39.5614 56.293 40.9875 57.1198 41.6649 57.659C42.3423 58.1622 42.9841 58.5217 43.0554 58.4139C43.1623 58.306 42.8058 57.623 42.271 56.8682C41.7719 56.1133 41.3441 55.4303 41.3441 55.3224C41.3441 55.2505 42.0571 55.2146 42.9484 55.2865C44.1962 55.3943 44.5528 55.3224 44.5528 54.8911C44.5528 54.28 43.8397 54.1002 40.2745 53.7048C38.991 53.597 37.5649 53.3094 37.0658 53.0937C36.5666 52.914 33.2153 52.7343 29.5788 52.6983C23.1257 52.6624 22.9474 52.6264 20.9509 51.6558C15.3178 48.852 13.9987 41.5907 18.0631 35.8032C19.4179 33.898 21.0935 32.7477 24.5874 31.3817C27.6892 30.1595 29.4005 28.5779 29.9353 26.4929C30.1492 25.6662 30.6127 24.0126 31.0049 22.8263C31.6466 20.7055 31.6466 20.6695 30.9692 21.4963C30.6127 21.9636 29.971 23.5093 29.5431 24.9113C28.5805 28.1465 27.6179 29.0811 23.5892 30.555C21.8779 31.166 19.9883 31.9928 19.3466 32.3882C17.9918 33.251 16.3518 35.2281 15.4604 37.1333C14.783 38.5711 14.0344 38.9665 14.3909 37.6365C14.5335 37.2051 14.7117 29.872 14.8544 21.3885C15.1039 3.41497 14.783 0 12.9648 0C12.6796 0 12.4656 0.287575 12.4656 0.611098ZM15.4961 48.5644C16.3518 50.2539 17.35 51.4402 18.4196 52.1591C19.3109 52.7702 19.2752 52.7702 16.2804 53.0218C14.6048 53.1656 13.1074 53.2016 12.9291 53.0937C12.7509 52.9859 12.9291 51.0088 13.357 48.7082C14.07 44.5743 14.07 44.5383 14.4622 45.9403C14.7117 46.6951 15.1752 47.8814 15.4961 48.5644ZM9.61346 55.4303C9.61346 56.329 7.97345 58.7733 7.11779 59.2407C6.61866 59.4923 5.54909 59.6361 4.69343 59.5642C2.26907 59.3126 0.949937 57.5871 2.30473 56.4368C3.62386 55.3584 9.61346 54.5316 9.61346 55.4303Z" fill="#282828"/>
<path d="M139.423 8.24861C139.161 8.69622 142.234 13.069 142.692 12.9313C143.804 12.5525 141.646 7.9043 140.338 7.9043C139.946 7.9043 139.521 8.07645 139.423 8.24861Z" fill="#282828"/>
<path d="M129.238 12.3711C126.928 14.8304 125.737 22.5648 125.701 35.0753C125.701 39.9227 125.809 44.3424 125.953 44.9126C126.17 45.9106 126.062 46.0532 123.246 47.6571C116.569 51.5065 113.068 51.6847 112.022 48.2274C111.372 46.0888 111.913 45.4473 114.729 45.1621C119.096 44.6988 120.828 42.5246 117.652 41.491C115.92 40.8851 113.285 41.3484 111.625 42.5602C110.47 43.38 109.207 45.6968 109.17 47.0512C109.17 48.1561 106.897 51.5065 105.742 52.1124C104.37 52.8253 104.118 52.1837 104.37 48.8333C104.623 45.376 104.334 44.9127 102.06 45.2334C100.472 45.4473 100.436 45.4473 100.725 44.5919C101.266 42.9523 101.122 41.9543 100.292 41.8474C99.8587 41.7761 99.2451 41.99 98.9203 42.3107C98.2346 42.988 98.1263 45.3404 98.7759 45.9819C99.3173 46.5166 98.2706 48.0135 96.5382 49.1541C95.0585 50.1521 94.5893 50.1877 93.6148 49.2254C92.8929 48.5125 92.8568 48.1917 93.0373 45.1621C93.2178 42.3107 93.1817 41.8118 92.6764 41.6335C92.3515 41.491 91.738 41.6335 91.3049 41.9187C90.6913 42.3107 90.2221 42.3464 89.1033 42.0612C87.3348 41.5979 86.3964 41.8117 84.2308 43.1662C83.0037 43.9146 82.318 44.6988 81.6322 46.1245C80.766 47.9066 79.3584 49.2967 77.4816 50.2947C76.7959 50.6511 76.5432 50.6511 76.1101 50.2947C75.6409 49.9026 75.6049 49.1897 75.8214 45.9819C76.1101 41.3484 75.7853 40.7068 73.1867 40.7068C71.9235 40.7068 71.3821 40.9207 70.191 41.99L68.7113 43.3087L67.9172 42.5246C67.448 42.1325 66.8345 41.7761 66.5458 41.7761C65.8961 41.7761 64.4163 43.2731 63.4779 44.877C62.6839 46.2671 62.2508 46.374 62.2508 45.2334C62.2508 44.2354 61.6372 43.5582 60.7349 43.5582C60.2296 43.5582 60.0853 43.8434 60.0853 44.9126C60.0853 47.4433 56.5122 50.5798 54.7076 49.6531C53.697 49.0828 53.4443 47.9066 53.7331 44.6275C53.9135 42.2395 53.8774 41.8118 53.3722 41.6335C53.0473 41.491 52.3977 41.6335 51.9285 41.9543C51.3149 42.3464 50.8457 42.382 50.16 42.1325C48.5358 41.5266 47.3087 41.7405 45.2875 42.9167C42.9055 44.3424 41.6783 46.4096 41.6783 48.9759C41.6783 53.0748 46.3342 53.7163 49.1855 49.9739C50.6292 48.0848 51.0623 47.8353 51.0623 48.9046C51.0623 50.0808 52.6503 51.3996 54.094 51.3996C55.8986 51.3996 57.1979 50.8293 58.7499 49.3323L60.0853 48.0492V49.3323C60.0853 51.1501 60.4101 51.756 61.3485 51.756C62.2147 51.756 62.323 51.5778 64.5246 46.6591C65.0299 45.5542 65.6434 44.6275 65.8239 44.6275C66.0766 44.6275 66.2209 45.5186 66.2209 46.8373C66.2209 48.0848 66.3653 49.2967 66.5458 49.5462C67.1232 50.4372 68.206 49.8313 68.9278 48.1918C70.8407 43.9503 71.8513 42.3107 72.537 42.3107C73.2228 42.3107 73.2589 42.5602 73.2589 46.0532C73.295 50.6867 73.295 50.8649 74.0168 51.5421C75.1717 52.6827 77.7704 52.0411 79.5389 50.1877C80.6577 49.0115 80.8743 49.0115 81.1269 50.3303C81.3796 51.4352 82.8593 52.4688 84.2669 52.4688C85.7828 52.4688 87.5152 51.4352 88.6702 49.8313C89.9334 48.0492 90.4026 47.7997 90.4026 48.9046C90.4026 49.3323 90.8357 50.0452 91.341 50.5798C92.135 51.3639 92.4959 51.4709 94.0479 51.3283C96.1773 51.1144 97.3323 50.3659 99.0647 48.0848C100.039 46.8017 100.544 46.4096 101.338 46.4096H102.313L102.096 49.3679C101.808 52.9678 102.169 53.8945 103.865 53.8945C105.489 53.8945 107.221 52.754 108.376 50.9362L109.351 49.3679L110.434 50.5442C111.95 52.1124 114.079 52.6471 116.533 52.0768C118.987 51.5065 122.344 49.8669 124.365 48.1918L126.025 46.8017L126.603 48.9046C128.444 55.4272 134.29 55.4628 137.214 48.9759C138.405 46.3027 138.116 45.3403 136.853 47.764C136.312 48.7977 135.193 50.2947 134.399 51.0788C133.244 52.2193 132.739 52.5045 131.836 52.3976C130.284 52.255 129.454 51.0075 128.768 47.6571L128.155 44.8057L129.996 40.1722C134.471 28.8379 135.806 15.472 132.775 12.1572C131.908 11.1949 130.248 11.3018 129.238 12.3711ZM132.594 14.5809C133.496 17.7175 132.702 25.7726 130.862 33.0081C129.779 37.1426 128.335 41.2415 128.047 40.9563C127.613 40.493 129.274 18.3234 129.959 15.9353C130.79 12.9057 131.981 12.2998 132.594 14.5809ZM116.569 42.8097C116.858 43.3087 115.559 43.9147 114.332 43.9147L113.321 43.879L114.187 43.2018C115.09 42.4533 116.208 42.2751 116.569 42.8097ZM50.4487 43.879C50.8818 44.3067 49.1494 47.5502 47.5613 49.261C44.7101 52.4332 43.0498 49.7957 45.3597 45.6611C46.2981 43.9859 47.7057 43.1305 49.0772 43.38C49.6547 43.4869 50.2682 43.7008 50.4487 43.879ZM89.789 43.879C90.2221 44.3067 88.4897 47.5502 86.9016 49.261C84.0504 52.4332 82.3902 49.7957 84.7 45.6611C85.6384 43.9859 87.046 43.1305 88.4175 43.38C88.995 43.4869 89.6086 43.7008 89.789 43.879Z" fill="#282828"/>
<path d="M33.4178 18.0914C32.8124 18.531 32.3367 19.072 32.3367 19.3087C32.3367 19.5115 32.6826 19.3763 33.1151 18.9705C33.5043 18.5986 34.2395 18.0576 34.7152 17.7533C35.2342 17.4828 35.3639 17.2799 35.0179 17.2461C34.7152 17.2461 33.98 17.618 33.4178 18.0914Z" fill="#282828"/>
<path d="M35.3405 18.0731C34.8838 18.5031 34.4923 19.0655 34.4923 19.297C34.4923 19.5286 34.7859 19.3632 35.1122 18.9331C35.4384 18.47 35.993 17.9077 36.3193 17.6761C36.6455 17.4446 36.7434 17.2461 36.5477 17.2461C36.3845 17.2461 35.8299 17.61 35.3405 18.0731Z" fill="#282828"/>
<path d="M36.6481 18.8938C36.6481 19.4571 36.8698 19.9801 37.0915 20.1008C37.3686 20.2215 37.424 19.7789 37.3131 19.095C37.036 17.6867 36.6481 17.566 36.6481 18.8938Z" fill="#282828"/>
<path d="M39.6867 20.8463C39.6548 20.954 39.9417 21.9232 40.2924 23C41.1213 25.5844 41.0894 26.3741 40.1011 27.2715C39.6229 27.7022 39.3997 28.0253 39.591 28.0253C39.7823 28.0253 40.3562 27.6304 40.8981 27.092C41.6633 26.3741 41.7908 26.0511 41.5995 25.405C41.0894 24.0051 39.7185 20.6668 39.6867 20.8463Z" fill="#282828"/>
<path d="M38.804 23.2375C38.804 23.7216 39.2541 23.89 39.4394 23.4901C39.5454 23.3006 39.5454 23.0901 39.4659 23.027C39.3865 22.9638 39.3335 23.048 39.3335 23.2164C39.3335 23.448 39.2806 23.448 39.0687 23.1954C38.8569 22.9217 38.804 22.9217 38.804 23.2375Z" fill="#282828"/>
<path d="M37.8578 28.7777C37.565 29.1883 37.3373 30.0096 37.3698 30.5913L37.4023 31.6179L37.6626 30.4886C37.7928 29.8727 38.1832 29.0515 38.476 28.7093C38.8013 28.3329 38.8989 28.0249 38.7037 28.0249C38.5085 28.0249 38.1181 28.3671 37.8578 28.7777Z" fill="#282828"/>
<path d="M39.0357 34.5922C39.2215 35.5602 38.9614 36.3131 37.4007 38.8945C35.3197 42.4079 34.911 43.8779 35.3941 45.9931L35.7657 47.4272L35.8028 45.9573C35.84 44.0571 36.6575 41.906 38.1439 39.5756C39.4073 37.6038 39.8904 35.1659 39.2215 34.1262C38.8871 33.5525 38.8499 33.6601 39.0357 34.5922Z" fill="#282828"/>
<path d="M31.7521 43.6026C31.4193 46.0081 31.6855 47.4514 32.7838 49.1696C33.8488 50.8878 34.1484 50.5785 33.2165 48.7229C32.7838 47.8294 32.4177 46.2143 32.2513 44.4617L32.0183 41.6782L31.7521 43.6026Z" fill="#282828"/>
<path d="M21.6058 42.7469C21.3882 42.9296 21.9323 43.1123 22.839 43.158C23.9633 43.2037 25.0513 43.6605 26.2482 44.6197L28.0253 45.9899L27.4813 44.6653C27.1912 43.9345 26.6109 43.1123 26.2482 42.8383C25.414 42.2902 22.2587 42.2445 21.6058 42.7469Z" fill="#282828"/>
<path d="M21.7963 50.8904C23.1099 51.5431 23.8605 51.641 28.1765 51.6737L33.0554 51.7389L28.9271 51.4452C25.2491 51.2167 23.2225 50.923 21.0082 50.3355C20.5954 50.205 20.9707 50.4661 21.7963 50.8904Z" fill="#282828"/>
</svg>
