<svg width="34" height="26" viewBox="0 0 34 26" fill="none" xmlns="http://www.w3.org/2000/svg">
<path d="M32.9375 19.1875H32.4062V14.6875C32.4055 14.091 32.1814 13.5192 31.783 13.0974C31.3847 12.6756 30.8446 12.4383 30.2812 12.4375V2.875C30.2805 2.2785 30.0564 1.70666 29.658 1.28487C29.2597 0.863085 28.7196 0.625781 28.1562 0.625H5.84375C5.28039 0.625781 4.74032 0.863085 4.34196 1.28487C3.94361 1.70666 3.71949 2.2785 3.71875 2.875V12.4375C3.15539 12.4383 2.61532 12.6756 2.21696 13.0974C1.81861 13.5192 1.59449 14.091 1.59375 14.6875V19.1875H1.0625C0.921604 19.1875 0.786478 19.2468 0.68685 19.3523C0.587221 19.4577 0.53125 19.6008 0.53125 19.75V22C0.53125 22.1492 0.587221 22.2923 0.68685 22.3977C0.786478 22.5032 0.921604 22.5625 1.0625 22.5625H1.59375V24.8125C1.59375 24.9617 1.64972 25.1048 1.74935 25.2102C1.84898 25.3157 1.9841 25.375 2.125 25.375H3.71875C3.84153 25.3751 3.96054 25.33 4.05547 25.2476C4.15041 25.1651 4.2154 25.0504 4.23938 24.9229L4.68563 22.5625H29.3144L29.7606 24.9229C29.7846 25.0504 29.8496 25.1651 29.9445 25.2476C30.0395 25.33 30.1585 25.3751 30.2812 25.375H31.875C32.0159 25.375 32.151 25.3157 32.2507 25.2102C32.3503 25.1048 32.4062 24.9617 32.4062 24.8125V22.5625H32.9375C33.0784 22.5625 33.2135 22.5032 33.3132 22.3977C33.4128 22.2923 33.4688 22.1492 33.4688 22V19.75C33.4688 19.6008 33.4128 19.4577 33.3132 19.3523C33.2135 19.2468 33.0784 19.1875 32.9375 19.1875ZM4.78125 2.875C4.78162 2.57675 4.89368 2.29083 5.09286 2.07994C5.29203 1.86904 5.56207 1.75039 5.84375 1.75H28.1562C28.4379 1.75039 28.708 1.86904 28.9071 2.07994C29.1063 2.29083 29.2184 2.57675 29.2188 2.875V12.4375H28.1562V10.1875C28.1555 9.591 27.9314 9.01916 27.533 8.59737C27.1347 8.17559 26.5946 7.93828 26.0312 7.9375H19.6562C19.0929 7.93828 18.5528 8.17559 18.1545 8.59737C17.7561 9.01916 17.532 9.591 17.5312 10.1875V12.4375H16.4688V10.1875C16.468 9.591 16.2439 9.01916 15.8455 8.59737C15.4472 8.17559 14.9071 7.93828 14.3438 7.9375H7.96875C7.40539 7.93828 6.86532 8.17559 6.46696 8.59737C6.06861 9.01916 5.84449 9.591 5.84375 10.1875V12.4375H4.78125V2.875ZM27.0938 10.1875V12.4375H18.5938V10.1875C18.5941 9.88925 18.7062 9.60333 18.9054 9.39244C19.1045 9.18154 19.3746 9.06289 19.6562 9.0625H26.0312C26.3129 9.06289 26.583 9.18154 26.7821 9.39244C26.9813 9.60333 27.0934 9.88925 27.0938 10.1875ZM15.4062 10.1875V12.4375H6.90625V10.1875C6.90662 9.88925 7.01868 9.60333 7.21786 9.39244C7.41703 9.18154 7.68707 9.06289 7.96875 9.0625H14.3438C14.6254 9.06289 14.8955 9.18154 15.0946 9.39244C15.2938 9.60333 15.4059 9.88925 15.4062 10.1875ZM2.65625 14.6875C2.65662 14.3893 2.76868 14.1033 2.96786 13.8924C3.16703 13.6815 3.43707 13.5629 3.71875 13.5625H30.2812C30.5629 13.5629 30.833 13.6815 31.0321 13.8924C31.2313 14.1033 31.3434 14.3893 31.3438 14.6875V19.1875H2.65625V14.6875ZM3.28312 24.25H2.65625V22.5625H3.60188L3.28312 24.25ZM31.3438 24.25H30.7169L30.3981 22.5625H31.3438V24.25ZM32.4062 21.4375H1.59375V20.3125H32.4062V21.4375Z" fill="#282828"/>
</svg>
