<svg width="31" height="25" viewBox="0 0 31 25" fill="none" xmlns="http://www.w3.org/2000/svg">
<path d="M30.1109 8.31814C29.4919 7.69915 28.7786 7.53766 28.4355 7.46361C28.0183 7.36943 27.5809 7.34924 27.1571 7.40305C25.4413 3.41978 20.8525 0.72168 15.5033 0.72168C10.457 0.72168 5.996 3.43996 4.17932 7.46361C3.64775 7.34925 3.10274 7.34924 2.57124 7.47036C2.22808 7.54435 1.51485 7.70583 0.895847 8.32489C0.781484 8.43926 -0.194164 9.46203 0.0346245 10.9221C0.256664 12.3687 1.50816 13.2703 2.57799 13.499C2.94807 13.5798 3.32485 13.573 3.69493 13.4923C3.72855 13.4855 3.76224 13.4789 3.78911 13.4721C3.89679 13.6538 4.23994 14.6159 3.40559 18.7607C3.3854 18.8684 3.39215 18.9827 3.42577 19.0904C3.91697 20.6649 4.71089 21.4319 6.0095 21.58C6.03644 21.58 6.05662 21.5867 6.0835 21.5867V23.6053C6.0835 23.9753 6.38628 24.2781 6.75636 24.2781C7.12645 24.2781 7.42923 23.9753 7.42923 23.6053V21.5867H23.5776V23.6053C23.5776 23.9753 23.8803 24.2781 24.2504 24.2781C24.6205 24.2781 24.9233 23.9753 24.9233 23.6053V21.5867C24.9502 21.5867 24.9704 21.5867 24.9973 21.58C26.2959 21.4319 27.0966 20.6649 27.581 19.0904C27.6146 18.9827 27.6214 18.8684 27.6012 18.7607C26.7668 14.6092 27.11 13.647 27.2177 13.4721C27.2446 13.4789 27.2782 13.4855 27.3119 13.4923C27.6752 13.573 28.0587 13.5798 28.422 13.499C29.4919 13.2703 30.7434 12.3687 30.9654 10.9221C31.1941 9.45528 30.2185 8.43251 30.1109 8.31814ZM15.5033 2.06742C20.2536 2.06742 24.3244 4.38199 25.8719 7.82026C25.6431 7.94812 25.421 8.08942 25.2125 8.24415C24.6271 8.65461 24.1091 9.16593 23.6986 9.75806C23.3824 10.2223 23.1334 10.727 22.945 11.2585C22.4336 12.6715 22.2856 14.3536 22.2453 15.5244H8.7614C8.72103 14.3536 8.5663 12.6715 8.06166 11.2585C7.87325 10.727 7.62434 10.2223 7.30806 9.75806C6.8976 9.17268 6.38628 8.65461 5.79415 8.24415C5.67304 8.15666 5.54518 8.06923 5.41738 7.98849C7.02552 4.45598 11.002 2.06742 15.5033 2.06742ZM29.6466 10.7135C29.5121 11.5814 28.6777 12.0659 28.1529 12.1736C27.9578 12.2139 27.7626 12.2072 27.5743 12.1601C27.3455 12.113 27.0293 12.0524 26.6727 12.2207C25.549 12.7253 25.4279 14.6497 26.2555 18.8482C25.8316 20.093 25.3001 20.1872 24.8964 20.2343H6.11718C5.71347 20.1872 5.17522 20.093 4.75801 18.8482C5.58561 14.6497 5.4645 12.7253 4.34086 12.2207C3.98428 12.0592 3.668 12.1198 3.43927 12.1601C3.25085 12.2072 3.049 12.2139 2.86064 12.1736C2.33582 12.0592 1.50147 11.5814 1.36692 10.7135C1.23906 9.89929 1.84462 9.27355 1.84462 9.26686C2.18778 8.92371 2.60492 8.82953 2.86064 8.77566C3.2038 8.69492 3.56713 8.69492 3.91028 8.77566C4.35436 8.87659 4.63021 9.07169 5.02048 9.34085C5.478 9.66382 5.8817 10.0608 6.19798 10.5184C6.44696 10.8884 6.64206 11.2921 6.79011 11.7093C7.33512 13.2366 7.42261 15.1744 7.42261 16.1905C7.42261 16.5605 7.72539 16.8633 8.09548 16.8633H22.8981C23.2682 16.8633 23.571 16.5605 23.571 16.1905C23.571 15.1677 23.6585 13.2299 24.2035 11.7025C24.3515 11.2854 24.5466 10.8817 24.7956 10.5116C25.1186 10.0541 25.5155 9.65038 25.9731 9.3341C26.3566 9.06494 26.6392 8.86984 27.0766 8.76891C27.4265 8.69492 27.7831 8.69492 28.133 8.76891C28.3886 8.82272 28.8058 8.91696 29.149 9.26011C29.1622 9.27361 29.7677 9.89936 29.6466 10.7135Z" fill="#282828"/>
</svg>
