<svg width="22" height="22" viewBox="0 0 22 22" fill="none" xmlns="http://www.w3.org/2000/svg">
<path d="M11.0003 0.0106036C6.49469 0.0106036 2.21619 -0.389879 0.581968 3.80093C-0.0930627 5.53181 0.00496585 7.77972 0.00496585 10.9985C0.00496585 13.8229 -0.0856174 16.4775 0.581968 18.1947C2.21247 22.388 6.52571 21.9863 10.9978 21.9863C15.3123 21.9863 19.7608 22.4351 21.4149 18.1947C22.0911 16.4465 21.9919 14.2321 21.9919 10.9985C21.9919 6.70598 22.2289 3.93483 20.1455 1.85431C18.036 -0.253492 15.1832 0.0106036 10.9953 0.0106036H11.0003ZM10.015 1.9907C19.4133 1.97582 20.6095 0.931839 19.9494 15.4348C19.7149 20.5642 15.8061 20.0012 11.0015 20.0012C2.241 20.0012 1.98911 19.7508 1.98911 10.9935C1.98911 2.13452 2.68399 1.99566 10.015 1.98822V1.9907ZM16.8696 3.81457C16.1412 3.81457 15.5505 4.40475 15.5505 5.13256C15.5505 5.86037 16.1412 6.45056 16.8696 6.45056C17.598 6.45056 18.1886 5.86037 18.1886 5.13256C18.1886 4.40475 17.598 3.81457 16.8696 3.81457ZM11.0003 5.35574C7.88198 5.35574 5.35434 7.88263 5.35434 10.9985C5.35434 14.1143 7.88198 16.6399 11.0003 16.6399C14.1186 16.6399 16.645 14.1143 16.645 10.9985C16.645 7.88263 14.1186 5.35574 11.0003 5.35574ZM11.0003 7.33584C15.8459 7.33584 15.8521 14.6611 11.0003 14.6611C6.15593 14.6611 6.14849 7.33584 11.0003 7.33584Z" fill="white"/>
</svg>
