<svg width="36" height="20" viewBox="0 0 36 20" fill="none" xmlns="http://www.w3.org/2000/svg">
<path d="M32.8 4.39988C32.24 4.39988 31.688 4.55985 31.2 4.84785V4.39988C31.2 1.7439 29.856 0.399902 27.2 0.399902H8.79998C6.144 0.399902 4.8 1.7439 4.8 4.39988V4.84785C4.31198 4.55985 3.75998 4.40783 3.20003 4.39988C1.43198 4.39988 0 5.83193 0 7.5999V13.9999C0 15.7679 1.43198 17.1999 3.20003 17.1999H4.8V18.7999C4.8 19.2399 5.16 19.5999 5.60003 19.5999C6.04005 19.5999 6.40005 19.2399 6.40005 18.7999V17.1999H29.6V18.7999C29.6 19.2399 29.96 19.5999 30.4001 19.5999C30.84 19.5999 31.2 19.2399 31.2 18.7999V17.1999H32.792C34.56 17.1999 36 15.7679 36 13.9999V7.5999C36 5.83193 34.568 4.39988 32.8 4.39988ZM6.39998 4.39988C6.39998 2.6319 7.02398 1.99988 8.79998 1.99988H27.1999C28.9679 1.99988 29.6 2.6319 29.6 4.39988V9.9999H6.39998V4.39988ZM34.4 13.9999C34.4 14.8879 33.672 15.5998 32.792 15.5998H3.20003C2.32005 15.5998 1.60005 14.8798 1.60005 13.9999V7.5999C1.60005 6.71992 2.32005 5.99993 3.20003 5.99993C4.08 5.99993 4.8 6.71992 4.8 7.5999V11.5999H31.2V7.5999C31.2 6.71992 31.92 5.99993 32.8 5.99993C33.68 5.99993 34.4 6.71992 34.4 7.5999V13.9999H34.4Z" fill="#FFDD55"/>
</svg>
