<svg width="26" height="28" viewBox="0 0 26 28" fill="none" xmlns="http://www.w3.org/2000/svg">
<path d="M25.0176 7.24902L25.0101 7.219C24.4031 4.76506 21.6665 2.13184 19.1533 1.58401L19.125 1.57818C15.0601 0.802718 10.9385 0.802718 6.87442 1.57818L6.84524 1.58401C4.33292 2.13184 1.59631 4.76506 0.988448 7.219L0.981777 7.24902C0.231335 10.676 0.231335 14.1514 0.981777 17.5784L0.988448 17.6085C1.57037 19.9577 4.1032 22.4699 6.52255 23.1608V25.9001C6.52255 26.8915 7.73076 27.3785 8.41783 26.6631L11.1932 23.7781C11.7952 23.8118 12.3974 23.8306 12.9997 23.8306C15.0459 23.8306 17.0929 23.6371 19.125 23.2494L19.1533 23.2435C21.6665 22.6957 24.4031 20.0625 25.0101 17.6085L25.0176 17.5785C25.7681 14.1514 25.7681 10.676 25.0176 7.24902ZM22.8213 17.0815C22.4161 18.6824 20.3382 20.6728 18.6872 21.0405C16.5259 21.4515 14.3474 21.6272 12.1711 21.5669C12.1279 21.5657 12.0862 21.5825 12.0561 21.6135C11.7472 21.9305 10.0296 23.6937 10.0296 23.6937L7.87418 25.9059C7.71658 26.0701 7.43975 25.9584 7.43975 25.7316V21.1937C7.43975 21.1188 7.38622 21.0551 7.3126 21.0407C7.31218 21.0406 7.31176 21.0405 7.31134 21.0404C5.66037 20.6727 3.58331 18.6824 3.17724 17.0814C2.50184 13.9837 2.50184 10.8436 3.17724 7.7459C3.58331 6.14495 5.66037 4.15461 7.31134 3.78689C11.0861 3.06897 14.9133 3.06897 18.6872 3.78689C20.339 4.15461 22.4161 6.14495 22.8213 7.7459C23.4975 10.8436 23.4975 13.9838 22.8213 17.0815Z" fill="white"/>
<path d="M16.5916 19.176C16.3378 19.099 16.0959 19.0472 15.8713 18.954C13.5436 17.9882 11.4013 16.7423 9.70439 14.8325C8.7394 13.7464 7.98412 12.5203 7.34566 11.2227C7.0429 10.6073 6.78775 9.96785 6.52768 9.33256C6.29054 8.75322 6.63983 8.1547 7.00763 7.71819C7.35275 7.30853 7.79684 6.99502 8.27779 6.76396C8.65318 6.58361 9.02348 6.68758 9.29765 7.00577C9.89033 7.69368 10.4347 8.41677 10.8756 9.21415C11.1467 9.70461 11.0723 10.3041 10.581 10.6379C10.4616 10.719 10.3528 10.8143 10.2415 10.9059C10.144 10.9862 10.0522 11.0673 9.9853 11.1761C9.86306 11.375 9.85723 11.6096 9.93594 11.8259C10.5418 13.4909 11.563 14.7856 13.2388 15.4829C13.507 15.5945 13.7763 15.7244 14.0852 15.6884C14.6026 15.6279 14.7701 15.0604 15.1327 14.7639C15.4871 14.4742 15.9399 14.4703 16.3216 14.7119C16.7034 14.9535 17.0736 15.2129 17.4415 15.4751C17.8026 15.7324 18.1621 15.9841 18.4952 16.2775C18.8155 16.5596 18.9258 16.9296 18.7455 17.3124C18.4153 18.0135 17.9348 18.5968 17.2418 18.9691C17.0461 19.074 16.8123 19.1081 16.5916 19.176C16.3378 19.0989 16.8123 19.1081 16.5916 19.176Z" fill="white"/>
<path d="M13.006 5.96245C16.0507 6.04775 18.5514 8.06836 19.0873 11.0785C19.1786 11.5914 19.2111 12.1158 19.2517 12.6363C19.2688 12.8553 19.1448 13.0633 18.9085 13.0661C18.6644 13.0691 18.5546 12.8649 18.5388 12.646C18.5074 12.2127 18.4857 11.7776 18.426 11.3479C18.1108 9.07979 16.3022 7.20335 14.0446 6.80069C13.7049 6.74007 13.3572 6.72415 13.0131 6.68804C12.7956 6.6652 12.5107 6.65202 12.4625 6.38161C12.422 6.1549 12.6134 5.97437 12.8293 5.96278C12.888 5.95953 12.947 5.9622 13.006 5.96245C16.0507 6.04775 12.947 5.9622 13.006 5.96245Z" fill="white"/>
<path d="M17.6333 11.9606C17.6283 11.9986 17.6257 12.088 17.6034 12.1722C17.5226 12.4779 17.0592 12.5162 16.9524 12.2077C16.9208 12.1161 16.9161 12.012 16.9159 11.9134C16.9148 11.2685 16.7747 10.6243 16.4495 10.0632C16.1152 9.48655 15.6045 9.00176 15.0055 8.70842C14.6433 8.53107 14.2515 8.42084 13.8545 8.35513C13.681 8.32645 13.5057 8.30902 13.3313 8.28476C13.12 8.25541 13.0072 8.12074 13.0172 7.91254C13.0266 7.71742 13.1691 7.57709 13.3818 7.58909C14.0805 7.62878 14.7554 7.77979 15.3766 8.10874C16.6398 8.77772 17.3614 9.83367 17.5721 11.2437C17.5816 11.3075 17.5969 11.3708 17.6017 11.435C17.6137 11.5933 17.6212 11.7518 17.6333 11.9606C17.6283 11.9986 17.6212 11.7518 17.6333 11.9606Z" fill="white"/>
<path d="M15.7399 11.8869C15.4852 11.8914 15.3489 11.7504 15.3226 11.5169C15.3043 11.354 15.2899 11.189 15.2511 11.0306C15.1745 10.7186 15.0087 10.4294 14.7462 10.2382C14.6223 10.1479 14.4819 10.0821 14.3348 10.0397C14.1479 9.98573 13.9539 10.0006 13.7674 9.95488C13.565 9.90527 13.453 9.74134 13.4849 9.55139C13.5138 9.37854 13.682 9.24363 13.8708 9.2573C15.0513 9.34252 15.8949 9.9528 16.0153 11.3425C16.0239 11.4405 16.0339 11.5442 16.0121 11.638C15.9748 11.7986 15.8559 11.879 15.7399 11.8869C15.4852 11.8914 15.8559 11.879 15.7399 11.8869Z" fill="white"/>
</svg>
